<mxfile host="Electron" modified="2024-01-13T14:38:48.874Z" agent="Mozilla/5.0 (Windows NT 10.0; Win64; x64) AppleWebKit/537.36 (KHTML, like Gecko) draw.io/22.1.16 Chrome/120.0.6099.109 Electron/28.1.0 Safari/537.36" etag="R6q-OvNmvIkxAZcANu07" version="22.1.16" type="device">
  <diagram name="Страница — 1" id="KcjM4zE63MS0U_38NT4k">
    <mxGraphModel dx="712" dy="877" grid="1" gridSize="10" guides="1" tooltips="1" connect="1" arrows="1" fold="1" page="1" pageScale="1" pageWidth="827" pageHeight="1169" math="0" shadow="0">
      <root>
        <mxCell id="0" />
        <mxCell id="1" parent="0" />
        <mxCell id="tzwKV9Mpe4xvcWZmtza--2" style="edgeStyle=none;curved=1;rounded=0;orthogonalLoop=1;jettySize=auto;html=1;fontSize=12;startSize=8;endSize=8;fillColor=#e1d5e7;strokeColor=#9673a6;" edge="1" parent="1" source="tzwKV9Mpe4xvcWZmtza--1">
          <mxGeometry relative="1" as="geometry">
            <mxPoint x="362" y="160" as="targetPoint" />
          </mxGeometry>
        </mxCell>
        <mxCell id="tzwKV9Mpe4xvcWZmtza--1" value="Start" style="ellipse;whiteSpace=wrap;html=1;fontSize=16;" vertex="1" parent="1">
          <mxGeometry x="294" y="40" width="136" height="70" as="geometry" />
        </mxCell>
        <mxCell id="tzwKV9Mpe4xvcWZmtza--4" style="edgeStyle=none;curved=1;rounded=0;orthogonalLoop=1;jettySize=auto;html=1;fontSize=12;startSize=8;endSize=8;" edge="1" parent="1">
          <mxGeometry relative="1" as="geometry">
            <mxPoint x="362" y="270" as="targetPoint" />
            <mxPoint x="362" y="220" as="sourcePoint" />
          </mxGeometry>
        </mxCell>
        <mxCell id="tzwKV9Mpe4xvcWZmtza--8" value="ДА" style="edgeStyle=none;curved=1;rounded=0;orthogonalLoop=1;jettySize=auto;html=1;fontSize=12;startSize=8;endSize=8;" edge="1" parent="1" source="tzwKV9Mpe4xvcWZmtza--6">
          <mxGeometry relative="1" as="geometry">
            <mxPoint x="620" y="335" as="targetPoint" />
          </mxGeometry>
        </mxCell>
        <mxCell id="tzwKV9Mpe4xvcWZmtza--11" value="НЕТ" style="edgeStyle=none;curved=1;rounded=0;orthogonalLoop=1;jettySize=auto;html=1;fontSize=12;startSize=8;endSize=8;" edge="1" parent="1" source="tzwKV9Mpe4xvcWZmtza--12">
          <mxGeometry relative="1" as="geometry">
            <mxPoint x="362" y="480" as="targetPoint" />
          </mxGeometry>
        </mxCell>
        <mxCell id="tzwKV9Mpe4xvcWZmtza--6" value="Длина каждого элемента массива &amp;lt;= 3?" style="rhombus;whiteSpace=wrap;html=1;fontSize=16;" vertex="1" parent="1">
          <mxGeometry x="183.5" y="270" width="357" height="130" as="geometry" />
        </mxCell>
        <mxCell id="tzwKV9Mpe4xvcWZmtza--9" value="Вывод данных" style="shape=document;whiteSpace=wrap;html=1;boundedLbl=1;fontSize=16;" vertex="1" parent="1">
          <mxGeometry x="620" y="295" width="120" height="80" as="geometry" />
        </mxCell>
        <mxCell id="tzwKV9Mpe4xvcWZmtza--21" style="edgeStyle=none;curved=1;rounded=0;orthogonalLoop=1;jettySize=auto;html=1;fontSize=12;startSize=8;endSize=8;entryX=0;entryY=0.5;entryDx=0;entryDy=0;" edge="1" parent="1" source="tzwKV9Mpe4xvcWZmtza--10" target="tzwKV9Mpe4xvcWZmtza--10">
          <mxGeometry relative="1" as="geometry">
            <mxPoint x="120" y="190" as="targetPoint" />
          </mxGeometry>
        </mxCell>
        <mxCell id="tzwKV9Mpe4xvcWZmtza--10" value="Дан массив из n кол-во строк&amp;nbsp;" style="shape=parallelogram;perimeter=parallelogramPerimeter;whiteSpace=wrap;html=1;fixedSize=1;fontSize=16;" vertex="1" parent="1">
          <mxGeometry x="250" y="160" width="221" height="60" as="geometry" />
        </mxCell>
        <mxCell id="tzwKV9Mpe4xvcWZmtza--13" value="НЕТ" style="edgeStyle=none;curved=1;rounded=0;orthogonalLoop=1;jettySize=auto;html=1;fontSize=12;startSize=8;endSize=8;" edge="1" parent="1" source="tzwKV9Mpe4xvcWZmtza--6" target="tzwKV9Mpe4xvcWZmtza--12">
          <mxGeometry relative="1" as="geometry">
            <mxPoint x="362" y="480" as="targetPoint" />
            <mxPoint x="362" y="400" as="sourcePoint" />
          </mxGeometry>
        </mxCell>
        <mxCell id="tzwKV9Mpe4xvcWZmtza--28" style="edgeStyle=none;curved=1;rounded=0;orthogonalLoop=1;jettySize=auto;html=1;entryX=0.5;entryY=0;entryDx=0;entryDy=0;fontSize=12;startSize=8;endSize=8;" edge="1" parent="1" source="tzwKV9Mpe4xvcWZmtza--12" target="tzwKV9Mpe4xvcWZmtza--17">
          <mxGeometry relative="1" as="geometry" />
        </mxCell>
        <mxCell id="tzwKV9Mpe4xvcWZmtza--12" value="Проходимся по каждой строке массива, введёного пользователем" style="rounded=0;whiteSpace=wrap;html=1;fontSize=16;" vertex="1" parent="1">
          <mxGeometry x="258" y="440" width="208" height="110" as="geometry" />
        </mxCell>
        <mxCell id="tzwKV9Mpe4xvcWZmtza--19" value="НЕТ" style="edgeStyle=none;curved=1;rounded=0;orthogonalLoop=1;jettySize=auto;html=1;fontSize=12;startSize=8;endSize=8;" edge="1" parent="1" source="tzwKV9Mpe4xvcWZmtza--17">
          <mxGeometry relative="1" as="geometry">
            <mxPoint x="570" y="670" as="targetPoint" />
          </mxGeometry>
        </mxCell>
        <mxCell id="tzwKV9Mpe4xvcWZmtza--26" value="ДА" style="edgeStyle=orthogonalEdgeStyle;curved=1;rounded=0;orthogonalLoop=1;jettySize=auto;html=1;fontSize=12;startSize=8;endSize=8;entryX=0;entryY=0.75;entryDx=0;entryDy=0;" edge="1" parent="1" source="tzwKV9Mpe4xvcWZmtza--17" target="tzwKV9Mpe4xvcWZmtza--10">
          <mxGeometry relative="1" as="geometry">
            <mxPoint x="100" y="180" as="targetPoint" />
            <Array as="points">
              <mxPoint x="101" y="670" />
              <mxPoint x="101" y="204" />
            </Array>
          </mxGeometry>
        </mxCell>
        <mxCell id="tzwKV9Mpe4xvcWZmtza--17" value="Элемент под индексом [] &amp;lt;= 3 ?" style="rhombus;whiteSpace=wrap;html=1;fontSize=16;" vertex="1" parent="1">
          <mxGeometry x="229.5" y="600" width="262" height="130" as="geometry" />
        </mxCell>
        <mxCell id="tzwKV9Mpe4xvcWZmtza--25" style="edgeStyle=none;curved=1;rounded=0;orthogonalLoop=1;jettySize=auto;html=1;fontSize=12;startSize=8;endSize=8;entryX=0.5;entryY=1;entryDx=0;entryDy=0;" edge="1" parent="1" source="tzwKV9Mpe4xvcWZmtza--18" target="tzwKV9Mpe4xvcWZmtza--17">
          <mxGeometry relative="1" as="geometry">
            <mxPoint x="630" y="760" as="targetPoint" />
            <Array as="points">
              <mxPoint x="730" y="950" />
            </Array>
          </mxGeometry>
        </mxCell>
        <mxCell id="tzwKV9Mpe4xvcWZmtza--18" value="Индекс+1" style="rounded=0;whiteSpace=wrap;html=1;fontSize=16;" vertex="1" parent="1">
          <mxGeometry x="570" y="640" width="120" height="60" as="geometry" />
        </mxCell>
      </root>
    </mxGraphModel>
  </diagram>
</mxfile>
